<?xml version="1.0" encoding="UTF-8" standalone="no"?>
<!-- Created with Inkscape (http://www.inkscape.org/) -->

<svg
   xmlns:dc="http://purl.org/dc/elements/1.1/"
   xmlns:cc="http://creativecommons.org/ns#"
   xmlns:rdf="http://www.w3.org/1999/02/22-rdf-syntax-ns#"
   xmlns:svg="http://www.w3.org/2000/svg"
   xmlns="http://www.w3.org/2000/svg"
   xmlns:sodipodi="http://sodipodi.sourceforge.net/DTD/sodipodi-0.dtd"
   xmlns:inkscape="http://www.inkscape.org/namespaces/inkscape"
   width="42.694077mm"
   height="5.7071886mm"
   viewBox="0 0 42.694076 5.7071886"
   version="1.1"
   id="svg5793"
   inkscape:version="0.92.4 (unknown)"
   sodipodi:docname="logo_dashboard.svg">
  <defs
     id="defs5787" />
  <sodipodi:namedview
     id="base"
     pagecolor="#ffffff"
     bordercolor="#666666"
     borderopacity="1.0"
     inkscape:pageopacity="0.0"
     inkscape:pageshadow="2"
     inkscape:zoom="2.8"
     inkscape:cx="64.316546"
     inkscape:cy="-16.061809"
     inkscape:document-units="mm"
     inkscape:current-layer="layer1"
     showgrid="false"
     inkscape:window-width="1366"
     inkscape:window-height="701"
     inkscape:window-x="0"
     inkscape:window-y="24"
     inkscape:window-maximized="1" />
  <metadata
     id="metadata5790">
    <rdf:RDF>
      <cc:Work
         rdf:about="">
        <dc:format>image/svg+xml</dc:format>
        <dc:type
           rdf:resource="http://purl.org/dc/dcmitype/StillImage" />
        <dc:title></dc:title>
      </cc:Work>
    </rdf:RDF>
  </metadata>
  <g
     inkscape:label="Layer 1"
     inkscape:groupmode="layer"
     id="layer1"
     transform="translate(-9.0409536,-112.71783)">
    <path
       id="path2581"
       d="m 12.894284,112.99265 0.30587,0.2413 c 0.2766,0.21808 0.46541,0.45893 0.58277,0.71936 0.26166,0.58143 0.21237,1.22529 0.17177,1.8576 -0.0652,1.02242 -0.008,1.94192 0.86547,2.50991 l 0.0513,0.0319 c 1.19099,-0.0315 3.098,0.29947 3.93372,-0.72392 0.33077,-0.42125 0.41166,-0.93192 0.42467,-1.3369 v -0.003 -0.003 c -2.1e-4,-1.14509 -0.97578,-2.06764 -2.16139,-2.06785 h -4.23e-4 -4.24e-4 c -0.161953,4.2e-4 -0.319773,0.0371 -0.477233,0.072 -0.83117,-1.43963 -2.4292,-1.72793 -3.69612,-1.29708 z"
       style="color:#000000;font-style:normal;font-variant:normal;font-weight:normal;font-stretch:normal;font-size:medium;line-height:normal;font-family:sans-serif;font-variant-ligatures:normal;font-variant-position:normal;font-variant-caps:normal;font-variant-numeric:normal;font-variant-alternates:normal;font-feature-settings:normal;text-indent:0;text-align:start;text-decoration:none;text-decoration-line:none;text-decoration-style:solid;text-decoration-color:#000000;letter-spacing:normal;word-spacing:normal;text-transform:none;writing-mode:lr-tb;direction:ltr;text-orientation:mixed;dominant-baseline:auto;baseline-shift:baseline;text-anchor:start;white-space:normal;shape-padding:0;clip-rule:nonzero;display:inline;overflow:visible;visibility:visible;opacity:1;isolation:auto;mix-blend-mode:normal;color-interpolation:sRGB;color-interpolation-filters:linearRGB;solid-color:#000000;solid-opacity:1;vector-effect:none;fill:#ffffff;fill-opacity:1;fill-rule:nonzero;stroke:none;stroke-width:0.4238354;stroke-linecap:butt;stroke-linejoin:miter;stroke-miterlimit:4;stroke-dasharray:none;stroke-dashoffset:0;stroke-opacity:1;color-rendering:auto;image-rendering:auto;shape-rendering:auto;text-rendering:auto;enable-background:accumulate"
       inkscape:connector-curvature="0"
       sodipodi:nodetypes="ccccccccccccccc" />
    <path
       inkscape:connector-curvature="0"
       style="color:#000000;font-style:normal;font-variant:normal;font-weight:normal;font-stretch:normal;font-size:medium;line-height:normal;font-family:sans-serif;font-variant-ligatures:normal;font-variant-position:normal;font-variant-caps:normal;font-variant-numeric:normal;font-variant-alternates:normal;font-feature-settings:normal;text-indent:0;text-align:start;text-decoration:none;text-decoration-line:none;text-decoration-style:solid;text-decoration-color:#000000;letter-spacing:normal;word-spacing:normal;text-transform:none;writing-mode:lr-tb;direction:ltr;text-orientation:mixed;dominant-baseline:auto;baseline-shift:baseline;text-anchor:start;white-space:normal;shape-padding:0;clip-rule:nonzero;display:inline;overflow:visible;visibility:visible;opacity:1;isolation:auto;mix-blend-mode:normal;color-interpolation:sRGB;color-interpolation-filters:linearRGB;solid-color:#000000;solid-opacity:1;vector-effect:none;fill:#ffffff;fill-opacity:1;fill-rule:nonzero;stroke:none;stroke-width:0.41867897;stroke-linecap:butt;stroke-linejoin:miter;stroke-miterlimit:4;stroke-dasharray:none;stroke-dashoffset:0;stroke-opacity:1;color-rendering:auto;image-rendering:auto;shape-rendering:auto;text-rendering:auto;enable-background:accumulate"
       d="m 12.226684,113.28965 -0.11121,0.0826 c -0.34426,0.25561 -0.60142,0.59722 -0.77813,0.97794 -0.0526,-0.005 -0.10505,-0.0117 -0.15783,-0.0122 h -9e-4 -9.1e-4 c -1.17174,-4.2e-4 -2.1364902,0.91063 -2.1367502,2.04231 -4.4e-4,1.13235 0.9635002,2.07787 2.1424902,2.04383 0.74841,-0.0216 1.53049,-0.0257 2.29989,-0.0257 h 0.42849 l -0.2633,-0.33805 c -0.0902,-0.11577 -0.16367,-0.23224 -0.21918,-0.35288 -0.26292,-0.57467 -0.21553,-1.2124 -0.17503,-1.8371 v -9e-4 c 0.0432,-0.6269 0.0706,-1.22282 -0.15491,-1.7246 v -4.2e-4 c -0.13541,-0.30079 -0.37988,-0.56495 -0.75314,-0.78462 z m 0.0299,0.52499 c 0.22687,0.1585 0.37994,0.32163 0.46117,0.50206 0.1663,0.3703 0.16153,0.90824 0.11899,1.52511 v 4.3e-4 4.2e-4 c -0.0401,0.6192 -0.10653,1.34241 0.21215,2.03896 0.0167,0.0365 0.0445,0.067 0.0634,0.10222 -0.65011,0.001 -1.3064,0.003 -1.94041,0.0216 -0.9493,0.0274 -1.7124902,-0.73087 -1.7119402,-1.62517 2.1e-4,-0.8938 0.7611002,-1.62388 1.7172402,-1.62366 0.0821,9e-4 0.16376,0.007 0.24491,0.0192 l 0.16595,0.0242 0.0601,-0.15621 c 0.12387,-0.32167 0.34042,-0.5995 0.6084,-0.82921 z"
       id="path2585" />
    <text
       inkscape:export-ydpi="733"
       inkscape:export-xdpi="733"
       inkscape:export-filename="/home/ridwanzal/Desktop/cubina1.png"
       xml:space="preserve"
       style="font-style:normal;font-weight:normal;font-size:0.61712199px;line-height:1.25;font-family:sans-serif;letter-spacing:0px;word-spacing:0px;fill:#ffffff;fill-opacity:1;stroke:none;stroke-width:0.01542805"
       x="16.369482"
       y="113.16772"
       id="text2589"><tspan
         sodipodi:role="line"
         id="tspan2587"
         x="16.369482"
         y="113.16772"
         style="font-style:normal;font-variant:normal;font-weight:normal;font-stretch:normal;font-size:0.61712199px;font-family:'Zona Pro';-inkscape-font-specification:'Zona Pro, Normal';font-variant-ligatures:normal;font-variant-caps:normal;font-variant-numeric:normal;font-feature-settings:normal;text-align:start;writing-mode:lr-tb;text-anchor:start;fill:#ffffff;fill-opacity:1;stroke-width:0.01542805">TM</tspan></text>
    <text
       id="text2593"
       y="117.11101"
       x="20.534163"
       style="font-style:normal;font-weight:normal;font-size:4.06995773px;line-height:1.25;font-family:sans-serif;letter-spacing:0px;word-spacing:0px;fill:#ffffff;fill-opacity:1;stroke:none;stroke-width:0.10174891"
       xml:space="preserve"
       inkscape:export-filename="/home/ridwanzal/Desktop/cubina1.png"
       inkscape:export-xdpi="733"
       inkscape:export-ydpi="733"><tspan
         style="font-style:normal;font-variant:normal;font-weight:normal;font-stretch:normal;font-size:4.06995773px;font-family:'Avenir LT Std';-inkscape-font-specification:'Avenir LT Std';font-variant-ligatures:normal;font-variant-caps:normal;font-variant-numeric:normal;font-feature-settings:normal;text-align:start;writing-mode:lr-tb;text-anchor:start;fill:#ffffff;fill-opacity:1;stroke-width:0.10174891"
         y="117.11101"
         x="20.534163"
         id="tspan2591"
         sodipodi:role="line"><tspan
   style="font-style:normal;font-variant:normal;font-weight:bold;font-stretch:normal;font-family:'Avenir LT Std';-inkscape-font-specification:'Avenir LT Std Bold';fill:#ffffff;stroke-width:0.10174891"
   id="tspan6387">CLOUD</tspan> INOVASI</tspan></text>
  </g>
</svg>
